<svg width="157" height="35" viewBox="0 0 157 35" fill="none" xmlns="http://www.w3.org/2000/svg">
<path d="M35.144 34H27.416L26.84 20.992C26.68 17.888 26.6 15.12 26.6 12.688C26.6 10.832 26.648 9.07202 26.744 7.40802L21.608 30.496H14.168L8.69598 7.40802C8.88798 10.192 8.98398 12.816 8.98398 15.28C8.98398 17.136 8.93598 19.072 8.83998 21.088L8.26398 34H0.583984L3.07998 0.736023H13.016L18.008 23.296L22.664 0.736023H32.648L35.144 34Z" fill="#232222"/>
<path d="M59.9664 26.608C59.9664 27.568 60.0944 28.272 60.3504 28.72C60.6384 29.168 61.0864 29.504 61.6944 29.728L60.1104 34.672C58.5424 34.544 57.2624 34.208 56.2704 33.664C55.2784 33.088 54.5104 32.192 53.9664 30.976C52.3024 33.536 49.7424 34.816 46.2864 34.816C43.7584 34.816 41.7424 34.08 40.2384 32.608C38.7344 31.136 37.9824 29.216 37.9824 26.848C37.9824 24.064 39.0064 21.936 41.0544 20.464C43.1024 18.992 46.0624 18.256 49.9344 18.256H52.5264V17.152C52.5264 15.648 52.2064 14.624 51.5664 14.08C50.9264 13.504 49.8064 13.216 48.2064 13.216C47.3744 13.216 46.3664 13.344 45.1824 13.6C43.9984 13.824 42.7824 14.144 41.5344 14.56L39.8064 9.56802C41.4064 8.96002 43.0384 8.49602 44.7024 8.17602C46.3984 7.85602 47.9664 7.69602 49.4064 7.69602C53.0544 7.69602 55.7264 8.44802 57.4224 9.95202C59.1184 11.456 59.9664 13.712 59.9664 16.72V26.608ZM48.4944 29.392C50.2224 29.392 51.5664 28.576 52.5264 26.944V22.432H50.6544C48.9264 22.432 47.6304 22.736 46.7664 23.344C45.9344 23.952 45.5184 24.896 45.5184 26.176C45.5184 27.2 45.7744 28 46.2864 28.576C46.8304 29.12 47.5664 29.392 48.4944 29.392Z" fill="#232222"/>
<path d="M81.9912 32.8C81.0632 33.44 79.9752 33.936 78.7272 34.288C77.5112 34.64 76.2952 34.816 75.0792 34.816C69.5112 34.784 66.7272 31.712 66.7272 25.6V13.792H63.1272V8.51202H66.7272V2.99202L74.3112 2.12802V8.51202H80.1672L79.3512 13.792H74.3112V25.504C74.3112 26.688 74.5032 27.536 74.8872 28.048C75.2712 28.56 75.8792 28.816 76.7112 28.816C77.5752 28.816 78.4872 28.544 79.4472 28L81.9912 32.8Z" fill="#232222"/>
<path d="M105.903 20.752C105.903 21.808 105.855 22.72 105.759 23.488H89.9671C90.2231 25.632 90.8311 27.136 91.7911 28C92.7511 28.864 94.0791 29.296 95.7751 29.296C96.7991 29.296 97.7911 29.12 98.7511 28.768C99.7111 28.384 100.751 27.808 101.871 27.04L104.991 31.264C102.015 33.632 98.7031 34.816 95.0551 34.816C90.9271 34.816 87.7591 33.6 85.5511 31.168C83.3431 28.736 82.2391 25.472 82.2391 21.376C82.2391 18.784 82.7031 16.464 83.6311 14.416C84.5591 12.336 85.9191 10.704 87.7111 9.52002C89.5031 8.30402 91.6471 7.69602 94.1431 7.69602C97.8231 7.69602 100.703 8.84802 102.783 11.152C104.863 13.456 105.903 16.656 105.903 20.752ZM98.4631 18.592C98.3991 14.688 97.0231 12.736 94.3351 12.736C93.0231 12.736 91.9991 13.216 91.2631 14.176C90.5591 15.136 90.1271 16.72 89.9671 18.928H98.4631V18.592Z" fill="#232222"/>
<path d="M131.667 34H125.091L124.755 30.784C122.899 33.472 120.323 34.816 117.027 34.816C114.691 34.816 112.915 34.112 111.699 32.704C110.515 31.296 109.923 29.328 109.923 26.8V8.51202H117.507V25.84C117.507 27.088 117.699 27.968 118.083 28.48C118.499 28.96 119.123 29.2 119.955 29.2C121.555 29.2 122.931 28.208 124.083 26.224V8.51202H131.667V34Z" fill="#232222"/>
<path d="M146.608 7.69602C148.432 7.69602 150.144 7.96802 151.744 8.51202C153.344 9.05602 154.752 9.82402 155.968 10.816L153.184 15.088C151.104 13.776 149.008 13.12 146.896 13.12C145.904 13.12 145.136 13.296 144.592 13.648C144.08 13.968 143.824 14.432 143.824 15.04C143.824 15.52 143.936 15.92 144.16 16.24C144.416 16.528 144.912 16.832 145.648 17.152C146.384 17.472 147.52 17.856 149.056 18.304C151.712 19.072 153.68 20.08 154.96 21.328C156.272 22.544 156.928 24.24 156.928 26.416C156.928 28.144 156.432 29.648 155.44 30.928C154.448 32.176 153.088 33.136 151.36 33.808C149.632 34.48 147.712 34.816 145.6 34.816C143.456 34.816 141.456 34.48 139.6 33.808C137.776 33.136 136.224 32.208 134.944 31.024L138.64 26.896C140.784 28.56 143.04 29.392 145.408 29.392C146.56 29.392 147.456 29.184 148.096 28.768C148.768 28.352 149.104 27.76 149.104 26.992C149.104 26.384 148.976 25.904 148.72 25.552C148.464 25.2 147.968 24.88 147.232 24.592C146.496 24.272 145.328 23.888 143.728 23.44C141.2 22.704 139.312 21.68 138.064 20.368C136.816 19.056 136.192 17.424 136.192 15.472C136.192 14 136.608 12.688 137.44 11.536C138.304 10.352 139.52 9.42402 141.088 8.75202C142.688 8.04802 144.528 7.69602 146.608 7.69602Z" fill="#232222"/>
</svg>
